<svg xmlns="http://www.w3.org/2000/svg" viewBox="0 0 100 125" x="0px" y="0px"><path d="m50 79.2057762c1.4920325 0 2.7614634.5294825 3.8082927 1.5884476s1.5702439 2.3345367 1.5702439 3.8267148c0 1.4681107-.5234146 2.7316486-1.5702439 3.7906137s-2.3162602 1.5884477-3.8082927 1.5884477c-1.4679675 0-2.7253659-.5294826-3.7721951-1.5884477-1.0468293-1.0589651-1.5702439-2.322503-1.5702439-3.7906137 0-1.4921781.5234146-2.7677497 1.5702439-3.8267148 1.0468292-1.0589651 2.3042276-1.5884476 3.7721951-1.5884476zm-26.8204878-22.4548737c1.8770732 0 3.5796748.4572804 5.1078049 1.3718412s2.7494309 2.1359807 3.6639024 3.6642599c.9144716 1.5282792 1.3717073 3.2310469 1.3717073 5.1083033 0 1.8531889-.4572357 3.5499398-1.3717073 5.0902527-.9144715 1.5403128-2.1357723 2.7737665-3.6639024 3.700361-1.5281301.9265944-3.2307317 1.3898917-5.1078049 1.3898917s-3.5856911-.4572804-5.1258537-1.3718412-2.7674796-2.1419976-3.6819512-3.6823105c-.9144715-1.5403128-1.3717073-3.2490974-1.3717073-5.1263537 0-1.8772564.4572358-3.5800241 1.3717073-5.1083033.9144716-1.5282792 2.1417886-2.7496991 3.6819512-3.6642599s3.2487805-1.3718412 5.1258537-1.3718412zm53.7131707 0c1.8530082 0 3.5495935.4572804 5.0897561 1.3718412s2.7614634 2.1359807 3.6639025 3.6642599c.902439 1.5282792 1.3536585 3.2310469 1.3536585 5.1083033 0 1.8531889-.4512195 3.5499398-1.3536585 5.0902527-.9024391 1.5403128-2.1237399 2.7737665-3.6639025 3.700361-1.5401626.9265944-3.2367479 1.3898917-5.0897561 1.3898917-1.9011382 0-3.6217886-.4572804-5.1619512-1.3718412s-2.7614634-2.1419976-3.6639024-3.6823105c-.9024391-1.5403128-1.3536586-3.2490974-1.3536586-5.1263537 0-1.8772564.4572358-3.5800241 1.3717073-5.1083033.9144716-1.5282792 2.1417887-2.7496991 3.6819513-3.6642599s3.2487805-1.3718412 5.1258536-1.3718412zm-53.7131707 5.0902527c-1.3957724 0-2.5930081.4933815-3.5917073 1.4801444-.9986992.986763-1.4980488 2.1780987-1.4980488 3.5740073 0 1.3959085.4933333 2.5992779 1.48 3.6101083.9866667 1.0108303 2.1899187 1.5162454 3.6097561 1.5162454 1.3957724 0 2.5930081-.5054151 3.5917073-1.5162454.9986992-1.0108304 1.4980488-2.2141998 1.4980488-3.6101083 0-1.3959086-.4993496-2.5872443-1.4980488-3.5740073-.9986992-.9867629-2.1959349-1.4801444-3.5917073-1.4801444zm53.7131707 0c-1.4198374 0-2.6291057.4933815-3.6278049 1.4801444-.9986991.986763-1.4980487 2.1780987-1.4980487 3.5740073 0 1.3959085.4993496 2.5992779 1.4980487 3.6101083.9986992 1.0108303 2.2079675 1.5162454 3.6278049 1.5162454 1.3717073 0 2.5569106-.5054151 3.5556098-1.5162454.9986992-1.0108304 1.4980488-2.2141998 1.4980488-3.6101083 0-1.3959086-.4993496-2.5872443-1.4980488-3.5740073-.9986992-.9867629-2.1839025-1.4801444-3.5556098-1.4801444zm-26.8926829-15.7400722c1.4920325 0 2.7614634.5174489 3.8082927 1.5523466s1.5702439 2.2984356 1.5702439 3.7906137-.5234146 2.7617329-1.5702439 3.8086643-2.3162602 1.5703971-3.8082927 1.5703971c-1.4679675 0-2.7253659-.5234657-3.7721951-1.5703971-1.0468293-1.0469314-1.5702439-2.3164862-1.5702439-3.8086643 0-1.4681107.5234146-2.7256317 1.5702439-3.7725632 1.0468292-1.0469314 2.3042276-1.5703971 3.7721951-1.5703971zm29.4556098-14.7292418c1.4679674 0 2.7253658.5234657 3.7721951 1.5703971 1.0468292 1.0469314 1.5702439 2.3164861 1.5702439 3.8086642 0 1.4681107-.5234147 2.7256318-1.5702439 3.7725632-1.0468293 1.0469314-2.3042277 1.5703971-3.7721951 1.5703971-1.4920326 0-2.7614635-.5234657-3.8082927-1.5703971-1.0468293-1.0469314-1.5702439-2.3044525-1.5702439-3.7725632 0-1.4921781.5234146-2.7617328 1.5702439-3.8086642 1.0468292-1.0469314 2.3162601-1.5703971 3.8082927-1.5703971zm-58.8390244 0c1.4439024 0 2.6952845.5234657 3.7541463 1.5703971s1.5882927 2.3164861 1.5882927 3.8086642c0 1.4681107-.5294309 2.7256318-1.5882927 3.7725632s-2.3102439 1.5703971-3.7541463 1.5703971c-1.4920326 0-2.7614634-.5234657-3.8082927-1.5703971s-1.5702439-2.3044525-1.5702439-3.7725632.5234146-2.7316486 1.5702439-3.7906137 2.3162601-1.5884476 3.8082927-1.5884476zm29.3834146-21.3718412c1.8770732 0 3.5856911.4512635 5.1258537 1.3537906s2.7614634 2.1179302 3.6639024 3.6462094 1.3536585 3.2310469 1.3536585 5.1083032c0 1.8772564-.4512195 3.586041-1.3536585 5.1263538-.902439 1.5403129-2.1237398 2.7677497-3.6639024 3.6823105s-3.2487805 1.3718412-5.1258537 1.3718412-3.5856911-.4572804-5.1258537-1.3718412-2.7614634-2.1419976-3.6639024-3.6823105c-.902439-1.5403128-1.3536585-3.2490974-1.3536585-5.1263538 0-1.8772563.4572357-3.580024 1.3717073-5.1083032.9144715-1.5282792 2.1417886-2.7436823 3.6819512-3.6462094s3.236748-1.3537906 5.0897561-1.3537906zm0 5.0541516c-1.3957724 0-2.5869919.4933815-3.5736585 1.4801444-.9866667.986763-1.48 2.1780987-1.48 3.5740072 0 1.3959086.4933333 2.5932612 1.48 3.5920578.9866666.9987966 2.1778861 1.498195 3.5736585 1.498195s2.5930081-.4993984 3.5917073-1.498195 1.4980488-2.1961492 1.4980488-3.5920578c0-1.3959085-.4993496-2.5872442-1.4980488-3.5740072-.9986992-.9867629-2.1959349-1.4801444-3.5917073-1.4801444z"/><text x="0" y="115" fill="#000000" font-size="5px" font-weight="bold" font-family="'Helvetica Neue', Helvetica, Arial-Unicode, Arial, Sans-serif">Created by Ian Stewart</text><text x="0" y="120" fill="#000000" font-size="5px" font-weight="bold" font-family="'Helvetica Neue', Helvetica, Arial-Unicode, Arial, Sans-serif">from the Noun Project</text></svg>