<svg xmlns="http://www.w3.org/2000/svg" xmlns:xlink="http://www.w3.org/1999/xlink" version="1.1" x="0px" y="0px" viewBox="0 0 512 640" style="enable-background:new 0 0 512 512;" xml:space="preserve"><g><path d="M429.021,307.191c-9.524,0-18.829,2.192-27.356,6.356c-0.976-40.586-34.29-73.303-75.096-73.303   c-10.966,0-21.526,2.456-31.218,6.924c0.493-4.436,0.793-8.889,0.793-13.34c0-66.588-54.195-120.783-120.783-120.783   S54.599,167.241,54.599,233.829c0,36.846,16.874,71.21,45.331,94.059c-10.63,11.467-17.237,26.716-17.237,43.54   c0,35.406,28.831,64.237,64.237,64.237h282.092c35.406,0,64.237-28.831,64.237-64.237S464.427,307.191,429.021,307.191z    M70.937,233.829c0-57.602,46.843-104.445,104.425-104.445c57.602,0,104.445,46.843,104.445,104.445   c0,2.625-0.589,5.213-0.786,7.838c-12.484-24.033-36.935-39.797-65.165-39.797c-29.01,0-54.912,16.219-67.584,42.32   c-4.981,10.241-7.512,21.26-7.512,32.796c0,10.52,2.251,20.781,6.495,30.226c-11.926,0.309-22.937,4.063-32.404,10.042   C86.594,297.549,70.937,266.843,70.937,233.829z M429.021,419.327H146.929c-26.42,0-47.899-21.479-47.899-47.899   c0-26.42,21.479-47.899,47.899-47.899c2.471,0,4.802,1.275,8.388,3.387c2.391,1.395,4.802,2.77,7.412,3.806   c3.586,1.435,7.651,0.179,9.803-3.009c2.152-3.188,1.773-7.452-0.897-10.221c-10.66-11.098-16.537-25.484-16.537-40.507   c0-9.026,1.973-17.673,5.858-25.643c0-0.02,0-0.02,0-0.02c9.922-20.423,30.186-33.115,52.9-33.115   c29.07,0,53.079,21.538,57.104,51.206c0.418,3.088,2.55,5.659,5.499,6.635c2.989,1.036,6.197,0.239,8.388-1.992   c11.158-11.277,25.982-17.474,41.722-17.474c32.417,0,58.778,26.36,58.778,58.778c0,3.248-0.897,6.475-1.953,10.201l-1.036,3.826   c-0.897,3.547,0.658,7.233,3.826,9.066c3.148,1.813,7.133,1.335,9.763-1.176c9.165-8.866,20.921-13.748,33.075-13.748   c26.42,0,47.899,21.479,47.899,47.899C476.92,397.848,455.441,419.327,429.021,419.327z"/><polygon points="190.799,103.828 175.368,76.335 159.937,103.828 159.937,105.101 190.799,105.101  "/><polygon points="137.109,109.954 136.591,108.791 111.311,89.951 108.397,121.343 108.915,122.507  "/><polygon points="69.383,159.159 90.033,136.225 89.088,135.373 58.331,128.443 68.437,158.307  "/><polygon points="48.177,208.721 57.714,179.371 56.504,178.978 25.587,185.157 46.967,208.329  "/><polygon points="48.964,262.625 45.737,231.932 44.472,232.066 18.742,250.285 47.698,262.758  "/><polygon points="55.074,285.457 38.978,312.568 70.505,312.185 71.607,311.548 56.175,284.822  "/><polygon points="303.769,208.329 325.15,185.157 294.232,178.978 293.022,179.371 302.559,208.721  "/><polygon points="282.298,158.307 292.405,128.443 261.647,135.373 260.702,136.225 281.353,159.159  "/><polygon points="242.338,121.343 239.424,89.951 214.145,108.791 213.628,109.954 241.821,122.507  "/><path d="M163.706,167.321c4.503,0,8.169-3.666,8.169-8.169c0-4.503-3.666-8.169-8.169-8.169c-38.315,0-69.497,31.182-69.497,69.497   c0,4.503,3.666,8.169,8.169,8.169s8.169-3.666,8.169-8.169C110.547,191.17,134.396,167.321,163.706,167.321z"/></g><text x="0" y="527" fill="#000000" font-size="5px" font-weight="bold" font-family="'Helvetica Neue', Helvetica, Arial-Unicode, Arial, Sans-serif">Created by Creative Studio</text><text x="0" y="532" fill="#000000" font-size="5px" font-weight="bold" font-family="'Helvetica Neue', Helvetica, Arial-Unicode, Arial, Sans-serif">from the Noun Project</text></svg>