<svg xmlns="http://www.w3.org/2000/svg" xmlns:xlink="http://www.w3.org/1999/xlink" version="1.1" x="0px" y="0px" viewBox="0 0 50 62.5" enable-background="new 0 0 50 50" xml:space="preserve"><g><path d="M37,48.1c-0.4,0.8,0.3,1.2,0.8,0.7c2.3-3,4.5-5.8,6.2-11l-3.1-2C40.6,40.2,39,44.2,37,48.1z"/><path d="M33.6,18.3l6-6c-3.4-5.1-6.8-8-11-11.3l-4.7,11.1C24,12.1,29,13.9,33.6,18.3z"/><path d="M41,33.4l3.6,2.3c1.8-7.5,0.1-15.1-3.9-21.6l-5.6,5.6C38.4,23,40.9,28,41,33.4z"/><path d="M7.4,35.5c1.9,0.4,3.7-0.8,4-2.7c0.1-0.3,0.1-0.6,0-0.9C15.1,29.2,27.5,20,27.5,20s-13.9,7.1-17.7,9.1   c-0.3-0.2-0.6-0.3-0.9-0.4c-1.9-0.4-3.7,0.8-4,2.7C4.4,33.3,5.6,35.1,7.4,35.5z"/><path d="M18.7,40.5c0,2.7,2.2,5,5,5c2.7,0,5-2.2,5-5c0-2.7-5-10.3-5-10.3S18.7,37.8,18.7,40.5z M26.7,42.4c-0.7,1-1.8,1.7-3.1,1.7   c-2.1,0-3.7-1.7-3.7-3.7c0-1,0.4-1.9,1.1-2.6c-0.4,0.6-0.6,1.3-0.6,2c0,2.1,1.7,3.7,3.7,3.7C25.1,43.4,26,43,26.7,42.4z"/></g><text x="0" y="65" fill="#000000" font-size="5px" font-weight="bold" font-family="'Helvetica Neue', Helvetica, Arial-Unicode, Arial, Sans-serif">Created by Vectors Market</text><text x="0" y="70" fill="#000000" font-size="5px" font-weight="bold" font-family="'Helvetica Neue', Helvetica, Arial-Unicode, Arial, Sans-serif">from the Noun Project</text></svg>