<svg xmlns="http://www.w3.org/2000/svg" xmlns:xlink="http://www.w3.org/1999/xlink" xmlns:serif="http://www.serif.com/" viewBox="0 0 100 125" version="1.1" xml:space="preserve" style="" x="0px" y="0px" fill-rule="evenodd" clip-rule="evenodd" stroke-linejoin="round" stroke-miterlimit="2"><g transform="matrix(1,0,0,1,-450,-112.5)"><g transform="matrix(1,0,0,1,450,112.5)"><rect x="0" y="0" width="100" height="100" style="" fill="none"/><g transform="matrix(1,0,0,1,-450,-113.995)"><path d="M525.672,145.667C535.788,145.667 544,153.88 544,163.995C544,174.11 535.788,182.323 525.672,182.323C515.557,182.323 507.345,174.11 507.345,163.995C507.345,153.88 515.557,145.667 525.672,145.667ZM503,181.086C503,181.417 502.864,181.733 502.623,181.96C502.382,182.187 502.059,182.305 501.728,182.286C492.205,181.626 484.672,173.683 484.672,163.995C484.672,154.307 492.205,146.365 501.729,145.711C502.057,145.692 502.379,145.809 502.619,146.035C502.858,146.26 502.994,146.575 502.994,146.904C503,152.508 503,175.482 503,181.086ZM457.994,147.133C457.809,147.049 457.696,146.858 457.712,146.655C457.728,146.453 457.87,146.282 458.066,146.228C464.124,144.696 470.816,146.297 475.552,151.033C482.706,158.187 482.706,169.803 475.552,176.957C470.61,181.899 463.539,183.427 457.279,181.541C457.087,181.479 456.954,181.303 456.948,181.101C456.941,180.899 457.061,180.714 457.248,180.639C459.391,179.742 461.399,178.424 463.142,176.682C470.296,169.528 470.296,157.911 463.142,150.757C461.602,149.218 459.857,148.01 457.994,147.133ZM525.672,149.667C533.58,149.667 540,156.087 540,163.995C540,171.903 533.58,178.323 525.672,178.323C517.765,178.323 511.345,171.903 511.345,163.995C511.345,156.087 517.765,149.667 525.672,149.667ZM499,177.756C493.036,176.023 488.672,170.515 488.672,163.995C488.672,157.475 493.036,151.967 499,150.234C499,150.234 499,177.756 499,177.756L499,177.756ZM468.492,150.934C470.026,151.625 471.464,152.601 472.724,153.861C478.317,159.454 478.317,168.536 472.724,174.129C471.303,175.549 469.658,176.609 467.902,177.307C473.837,169.583 474.034,158.857 468.492,150.934Z"/></g></g></g><text x="0" y="115" fill="#000000" font-size="5px" font-weight="bold" font-family="'Helvetica Neue', Helvetica, Arial-Unicode, Arial, Sans-serif">Created by Agan24</text><text x="0" y="120" fill="#000000" font-size="5px" font-weight="bold" font-family="'Helvetica Neue', Helvetica, Arial-Unicode, Arial, Sans-serif">from the Noun Project</text></svg>