<svg xmlns="http://www.w3.org/2000/svg" version="1.1" viewBox="-5.0 -10.0 110.0 135.0">
 <g fill-rule="evenodd">
  <path d="m88.738 85.336c-0.36719 0-0.71875-0.20703-0.88672-0.55859l-2.3789-5.0469c-0.23047-0.48828-0.019531-1.0703 0.46875-1.3008 0.48828-0.23047 1.0703-0.019532 1.3008 0.46875l2.3789 5.0469c0.23047 0.48438 0.019531 1.0664-0.46875 1.2969-0.13281 0.066406-0.27734 0.09375-0.41406 0.09375z"/>
  <path d="m76.223 85.336c-0.36719 0-0.71875-0.20703-0.88281-0.55859l-2.3789-5.0469c-0.23047-0.48828-0.023438-1.0703 0.46484-1.3008 0.48828-0.23047 1.0703-0.019532 1.3008 0.46875l2.3789 5.0469c0.23047 0.48438 0.019531 1.0664-0.46875 1.2969-0.13281 0.066406-0.27344 0.09375-0.41406 0.09375z"/>
  <path d="m63.703 85.336c-0.36719 0-0.71484-0.20703-0.88281-0.55859l-2.3789-5.0469c-0.23047-0.48828-0.019531-1.0703 0.46875-1.3008 0.48828-0.23047 1.0664-0.019532 1.2969 0.46875l2.3789 5.0469c0.23047 0.48438 0.019531 1.0664-0.46484 1.2969-0.13281 0.066406-0.27734 0.09375-0.41797 0.09375z"/>
  <path d="m51.191 85.336c-0.36719 0-0.71875-0.20703-0.88672-0.55859l-2.3789-5.0469c-0.23047-0.48828-0.019531-1.0703 0.46875-1.3008 0.48828-0.23047 1.0703-0.019532 1.3008 0.46875l2.3789 5.0469c0.23047 0.48438 0.019531 1.0664-0.46875 1.2969-0.13281 0.066406-0.27734 0.09375-0.41406 0.09375z"/>
  <path d="m38.676 85.336c-0.36719 0-0.71875-0.20703-0.88281-0.55859l-2.3789-5.0469c-0.23047-0.48828-0.023437-1.0703 0.46484-1.3008 0.48828-0.23047 1.0703-0.019532 1.3008 0.46875l2.3789 5.0469c0.23047 0.48438 0.019531 1.0664-0.46875 1.2969-0.13281 0.066406-0.27344 0.09375-0.41406 0.09375z"/>
  <path d="m26.156 85.336c-0.36719 0-0.71484-0.20703-0.88281-0.55859l-2.3789-5.0469c-0.23047-0.48828-0.019531-1.0703 0.46875-1.3008 0.48828-0.23047 1.0664-0.019532 1.2969 0.46875l2.3789 5.0469c0.23047 0.48438 0.023438 1.0664-0.46484 1.2969-0.13281 0.066406-0.27734 0.09375-0.41797 0.09375z"/>
  <path d="m13.645 85.336c-0.36719 0-0.71875-0.20703-0.88672-0.55859l-2.3789-5.0469c-0.23047-0.48828-0.019531-1.0703 0.46875-1.3008 0.48828-0.23047 1.0703-0.019532 1.3008 0.46875l2.3789 5.0469c0.23047 0.48438 0.019531 1.0664-0.46875 1.2969-0.13281 0.066406-0.27734 0.09375-0.41406 0.09375z"/>
  <path d="m85.898 94.73c-0.36719 0-0.71875-0.20703-0.88281-0.5625l-2.3789-5.0469c-0.23047-0.48828-0.023438-1.0703 0.46484-1.3008 0.48828-0.23047 1.0703-0.019531 1.3008 0.46875l2.3789 5.0469c0.23047 0.48828 0.019531 1.0703-0.46875 1.3008-0.13281 0.0625-0.27344 0.09375-0.41406 0.09375z"/>
  <path d="m73.379 94.73c-0.36719 0-0.71484-0.20703-0.88281-0.5625l-2.3789-5.0469c-0.23047-0.48828-0.019532-1.0703 0.46875-1.3008 0.48828-0.23047 1.0664-0.019531 1.2969 0.46875l2.3789 5.0469c0.23047 0.48828 0.023437 1.0703-0.46484 1.3008-0.13281 0.0625-0.27734 0.09375-0.41797 0.09375z"/>
  <path d="m60.867 94.73c-0.36719 0-0.71875-0.20703-0.88672-0.5625l-2.3789-5.0469c-0.23047-0.48828-0.019531-1.0703 0.46875-1.3008 0.48828-0.23047 1.0703-0.019531 1.3008 0.46875l2.3789 5.0469c0.23047 0.48828 0.019531 1.0703-0.46875 1.3008-0.13281 0.0625-0.27734 0.09375-0.41406 0.09375z"/>
  <path d="m48.352 94.73c-0.36719 0-0.71875-0.20703-0.88281-0.5625l-2.3789-5.0469c-0.23047-0.48828-0.019532-1.0703 0.46484-1.3008 0.48828-0.23047 1.0703-0.019531 1.3008 0.46875l2.3789 5.0469c0.23047 0.48828 0.019531 1.0703-0.46875 1.3008-0.13281 0.0625-0.27344 0.09375-0.41406 0.09375z"/>
  <path d="m35.836 94.73c-0.36719 0-0.71484-0.20703-0.88281-0.5625l-2.3789-5.0469c-0.23047-0.48828-0.019531-1.0703 0.46875-1.3008 0.48828-0.23047 1.0664-0.019531 1.2969 0.46875l2.3789 5.0469c0.23047 0.48828 0.019531 1.0703-0.46484 1.3008-0.13281 0.0625-0.27734 0.09375-0.41797 0.09375z"/>
  <path d="m23.32 94.73c-0.36719 0-0.71875-0.20703-0.88672-0.5625l-2.3789-5.0469c-0.23047-0.48828-0.019532-1.0703 0.46875-1.3008 0.48828-0.23047 1.0703-0.019531 1.3008 0.46875l2.3789 5.0469c0.23047 0.48828 0.019531 1.0703-0.46875 1.3008-0.13281 0.0625-0.27734 0.09375-0.41406 0.09375z"/>
  <path d="m73.508 60.086h-1.5234c-0.53906 0-0.97656-0.4375-0.97656-0.97656s0.4375-0.97656 0.97656-0.97656h1.5234c8.6172 0 15.629-7.0117 15.629-15.629 0-8.1875-6.3906-15.035-14.551-15.594-0.39844-0.027344-0.74219-0.29688-0.86328-0.67969-2.1875-6.918-8.7812-11.391-16.031-10.871-0.36719 0.027344-0.71875-0.15625-0.91016-0.47266-2.8086-4.7227-7.9609-7.6602-13.449-7.6602-4.6562 0-9.0312 2.0547-12.004 5.6289-2.9883 3.5898-4.2109 8.2852-3.3594 12.871 0.054688 0.28906-0.027344 0.58984-0.21875 0.81641-0.19141 0.22266-0.47266 0.34375-0.76953 0.33984-4.2656-0.13672-8.3047 1.4336-11.367 4.4062-3.0586 2.9688-4.7461 6.9531-4.7461 11.219 0 8.6172 7.0117 15.629 15.633 15.629h1.5234c0.53906 0 0.97656 0.4375 0.97656 0.97656 0 0.53906-0.4375 0.97656-0.97656 0.97656h-1.5234c-9.6953 0-17.586-7.8867-17.586-17.582 0-4.8008 1.8945-9.2812 5.3398-12.621 3.1641-3.0703 7.2539-4.8047 11.625-4.9531-0.56641-4.7891 0.84375-9.5859 3.9492-13.324 3.3477-4.0234 8.2695-6.332 13.508-6.332 5.9766 0 11.594 3.0938 14.812 8.1094 7.7031-0.29297 14.645 4.3984 17.23 11.641 8.8633 0.9375 15.715 8.4922 15.715 17.484 0 9.6953-7.8867 17.582-17.582 17.582z"/>
  <path d="m50 25.816c-12.797 0-23.207 10.41-23.207 23.207 0 12.797 10.41 23.207 23.207 23.207s23.207-10.41 23.207-23.207c0-12.797-10.41-23.207-23.207-23.207zm0 48.367c-13.875 0-25.16-11.289-25.16-25.16 0-13.875 11.289-25.16 25.16-25.16 13.875 0 25.16 11.289 25.16 25.16 0 13.871-11.289 25.16-25.16 25.16z"/>
  <path d="m36.719 59.32h26.562c2.2734-2.9336 3.5234-6.5703 3.5234-10.293 0-9.2656-7.5391-16.805-16.805-16.805s-16.805 7.5391-16.805 16.805c0 3.7227 1.25 7.3633 3.5234 10.293zm27.031 1.9531h-27.504c-0.29297 0-0.57031-0.12891-0.75391-0.35547-2.7422-3.3398-4.2539-7.5625-4.2539-11.891 0-10.344 8.4141-18.758 18.758-18.758s18.758 8.4141 18.758 18.758c0 4.3281-1.5078 8.5508-4.2539 11.891-0.18359 0.22656-0.46094 0.35547-0.75391 0.35547z"/>
  <path d="m55.711 67.727h-11.422c-0.53906 0-0.97656-0.4375-0.97656-0.97656s0.4375-0.97656 0.97656-0.97656h11.422c0.53906 0 0.97656 0.4375 0.97656 0.97656s-0.4375 0.97656-0.97656 0.97656z"/>
  <path d="m50 36.98c-0.53906 0-0.97656-0.4375-0.97656-0.97656v-4.7617c0-0.53906 0.4375-0.97656 0.97656-0.97656s0.97656 0.4375 0.97656 0.97656v4.7617c0 0.53906-0.4375 0.97656-0.97656 0.97656z"/>
  <path d="m40.793 40.793c-0.25 0-0.5-0.09375-0.69141-0.28516l-3.3633-3.3672c-0.38281-0.38281-0.38281-1 0-1.3828 0.37891-0.37891 1-0.37891 1.3789 0l3.3672 3.3672c0.37891 0.37891 0.37891 1 0 1.3828-0.19141 0.1875-0.44141 0.28516-0.69141 0.28516z"/>
  <path d="m36.98 50h-4.7617c-0.53906 0-0.97656-0.43359-0.97656-0.97266 0-0.54297 0.4375-0.97656 0.97656-0.97656h4.7617c0.53906 0 0.97656 0.43359 0.97656 0.97656 0 0.53906-0.4375 0.97266-0.97656 0.97266z"/>
  <path d="m59.207 40.793c-0.25 0-0.5-0.09375-0.69141-0.28516-0.38281-0.37891-0.38281-1 0-1.3789l3.3672-3.3672c0.38281-0.37891 1-0.37891 1.3789 0 0.38281 0.38281 0.38281 1 0 1.3828l-3.3633 3.3672c-0.19141 0.1875-0.44141 0.28516-0.69141 0.28516z"/>
  <path d="m67.781 50h-4.7617c-0.53906 0-0.97656-0.43359-0.97656-0.97266 0-0.54297 0.4375-0.97656 0.97656-0.97656h4.7617c0.53906 0 0.97656 0.43359 0.97656 0.97656 0 0.53906-0.4375 0.97266-0.97656 0.97266z"/>
  <path d="m54.43 61.273c-0.058594 0-0.11328-0.003907-0.17188-0.015626-0.53125-0.097656-0.88672-0.60547-0.78906-1.1367 0.25-1.3867-0.35156-2.7891-1.5273-3.5625-1.1758-0.77734-2.6992-0.77734-3.8789 0-1.1758 0.77734-1.7773 2.1758-1.5273 3.5625 0.097656 0.53125-0.25781 1.0391-0.78906 1.1367-0.53125 0.09375-1.0391-0.25781-1.1328-0.78906-0.38672-2.1602 0.54297-4.332 2.375-5.5391 1.832-1.207 4.1992-1.207 6.0312 0 1.832 1.207 2.7617 3.3828 2.375 5.5391-0.085937 0.47266-0.49609 0.80469-0.96094 0.80469z"/>
  <path d="m53.625 57.891c-0.023438 0-0.050781 0-0.074219-0.003906-0.53906-0.039063-0.94141-0.51172-0.89844-1.0508l0.81641-10.523-5.0781 9.875c-0.24609 0.48047-0.83594 0.66797-1.3164 0.42188s-0.66797-0.83594-0.42188-1.3125l7.2969-14.188c0.21094-0.41406 0.68359-0.61719 1.1328-0.49219s0.74609 0.55078 0.70703 1.0156l-1.1953 15.359c-0.039062 0.51172-0.46484 0.89844-0.97266 0.89844z"/>
 </g>
<text x="0.0" y="117.5" font-size="5.0" font-weight="bold" font-family="Arbeit Regular, Helvetica, Arial-Unicode, Arial, Sans-serif" fill="#000000">Created by Zoya Khan</text><text x="0.0" y="122.5" font-size="5.0" font-weight="bold" font-family="Arbeit Regular, Helvetica, Arial-Unicode, Arial, Sans-serif" fill="#000000">from Noun Project</text></svg>