<svg xmlns="http://www.w3.org/2000/svg" data-name="LINE BLACK" viewBox="0 0 48 60" x="0px" y="0px"><title>sunrise, sun, sunset, sky, summer, sea</title><path d="M1.2,27.09a1,1,0,0,0,.19,1.4,8.19,8.19,0,0,0,9.51,0l.51-.39a6.27,6.27,0,0,1,7.08,0l.5.39a8.2,8.2,0,0,0,9.51,0L29,28.1a6.27,6.27,0,0,1,7.08,0l.5.39a8.19,8.19,0,0,0,9.51,0l.51-.39a1,1,0,1,0-1.22-1.59l-.5.39a6.29,6.29,0,0,1-7.09,0l-.5-.39a5.33,5.33,0,0,0-.51-.31A12.51,12.51,0,0,0,37,24a13,13,0,0,0-26,0,12.21,12.21,0,0,0,.16,1.91,7.45,7.45,0,0,0-1,.6l-.5.39a6.27,6.27,0,0,1-7.08,0A1,1,0,0,0,1.2,27.09ZM24,13A11,11,0,0,1,35,24a10.05,10.05,0,0,1-.09,1.34,8.17,8.17,0,0,0-7.11,1.17l-.51.39a6.27,6.27,0,0,1-7.08,0l-.51-.39a8.16,8.16,0,0,0-6.63-1.29c0-.4-.07-.81-.07-1.22A11,11,0,0,1,24,13ZM22.71,35.62l.37.38a1,1,0,0,1-1.46,1.38L21.26,37a3.12,3.12,0,0,0-4.52,0l-.36.38a5.07,5.07,0,0,1-7.43,0L8.59,37A1,1,0,1,1,10,35.62l.36.38a3.12,3.12,0,0,0,4.52,0l.37-.38a5.06,5.06,0,0,1,7.42,0ZM41,40a1,1,0,0,1,0,1.42,5.07,5.07,0,0,1-7.43,0L33.26,41a3.12,3.12,0,0,0-4.52,0,1,1,0,1,1-1.45-1.38,5.06,5.06,0,0,1,7.42,0l.37.38a3.12,3.12,0,0,0,4.52,0A1,1,0,0,1,41,40ZM15.47,21.11a9.27,9.27,0,0,1,1.43-2.64,1,1,0,1,1,1.58,1.23,6.81,6.81,0,0,0-1.11,2.05,1,1,0,0,1-.95.68.89.89,0,0,1-.32-.05A1,1,0,0,1,15.47,21.11Zm3.6-3.73A1,1,0,0,1,19,17a.62.62,0,0,1,0-.19.6.6,0,0,1,.06-.19.76.76,0,0,1,.09-.18,1.58,1.58,0,0,1,.12-.15,1,1,0,0,1,1.42,0l.12.15a.76.76,0,0,1,.09.18.6.6,0,0,1,.06.19A1.23,1.23,0,0,1,21,17a1,1,0,0,1-.08.38,1.15,1.15,0,0,1-.21.33,1.46,1.46,0,0,1-.33.22,1.07,1.07,0,0,1-.76,0,1,1,0,0,1-.55-.55ZM24,4a1,1,0,0,1,1,1V8a1,1,0,0,1-2,0V5A1,1,0,0,1,24,4ZM11.27,9.86,13.39,12a1,1,0,0,1,0,1.41,1,1,0,0,1-1.41,0L9.86,11.27a1,1,0,0,1,1.41-1.41ZM5,23H8a1,1,0,0,1,0,2H5a1,1,0,0,1,0-2ZM38.14,9.86a1,1,0,0,1,0,1.41L36,13.39a1,1,0,0,1-1.41,0,1,1,0,0,1,0-1.41l2.12-2.12A1,1,0,0,1,38.14,9.86ZM40,23h3a1,1,0,0,1,0,2H40a1,1,0,0,1,0-2Z"/><text x="0" y="63" fill="#000000" font-size="5px" font-weight="bold" font-family="'Helvetica Neue', Helvetica, Arial-Unicode, Arial, Sans-serif">Created by omeneko</text><text x="0" y="68" fill="#000000" font-size="5px" font-weight="bold" font-family="'Helvetica Neue', Helvetica, Arial-Unicode, Arial, Sans-serif">from the Noun Project</text></svg>