<svg xmlns="http://www.w3.org/2000/svg" version="1.1" viewBox="-5.0 -10.0 110.0 135.0">
 <path d="m50 10.184c-0.49219 0-0.96094 0.19531-1.3086 0.54297-0.34766 0.34766-0.54297 0.82031-0.54297 1.3086v9.4727l-3.5156-3.457c-0.73047-0.71484-1.9023-0.70703-2.6172 0.023438-0.71875 0.73047-0.70703 1.9023 0.019531 2.6172l6.6641 6.5547h0.003906c0.71875 0.70703 1.875 0.70703 2.5977 0l6.668-6.5547c0.73047-0.71484 0.73828-1.8867 0.023438-2.6172-0.71875-0.73047-1.8906-0.73828-2.6211-0.023438l-3.5195 3.457v-9.4727c0-0.48828-0.19531-0.96094-0.53906-1.3086-0.34766-0.34766-0.82031-0.54297-1.3125-0.54297zm-28.148 17.219c-0.49219 0-0.96484 0.19531-1.3125 0.54297-0.72266 0.72266-0.72266 1.8945 0 2.6172l5.8906 5.8906h0.003906c0.72266 0.72656 1.8945 0.72656 2.6172 0 0.72266-0.72266 0.72266-1.8945 0-2.6172l-5.8906-5.8906c-0.34766-0.34766-0.82031-0.54297-1.3086-0.54297zm56.305 0h-0.003906c-0.48828 0-0.96094 0.19531-1.3086 0.54297l-5.8906 5.8906c-0.72266 0.72266-0.72266 1.8945 0 2.6172 0.72266 0.72656 1.8945 0.72656 2.6172 0l5.8906-5.8906h0.003906c0.72266-0.72266 0.72266-1.8945 0-2.6172-0.34766-0.34766-0.82031-0.54297-1.3125-0.54297zm-28.562 4.0742c-0.375 0.003907-0.75 0.019532-1.125 0.042969-1.7188 0.10156-3.4531 0.37891-5.1797 0.84375-13.809 3.6992-22.031 17.941-18.332 31.754 0.31641 1.1875 0.72656 2.3477 1.207 3.4766h-13.199c-0.49219 0-0.96484 0.19531-1.3125 0.54297-0.34766 0.34375-0.54297 0.81641-0.54297 1.3086 0 0.49219 0.19531 0.96094 0.54297 1.3086s0.82031 0.54297 1.3125 0.54297h74.07c0.49219 0 0.96484-0.19531 1.3125-0.54297s0.54297-0.81641 0.54297-1.3086c0-0.49219-0.19531-0.96484-0.54297-1.3086-0.34766-0.34766-0.82031-0.54297-1.3125-0.54297h-13.199c2.2695-5.3125 2.7188-11.262 1.207-16.898-3.1367-11.707-13.848-19.398-25.449-19.219zm0.20703 3.6992c9.9023-0.10547 18.98 6.4531 21.664 16.477 1.4336 5.3555 0.8125 11.035-1.7188 15.941h-39.488c-0.72656-1.4141-1.3086-2.8984-1.7188-4.4375-3.1836-11.875 3.8359-24.031 15.711-27.215 1.8555-0.49609 3.7188-0.74219 5.5508-0.76172zm-3.5352 6.0703c-0.19531-0.007813-0.39062 0.011718-0.57812 0.0625-8.8672 2.375-14.164 11.539-11.785 20.41 0.26172 0.98828 1.2773 1.5742 2.2656 1.3086 0.47656-0.125 0.88281-0.4375 1.1289-0.85938 0.24609-0.42578 0.3125-0.93359 0.18359-1.4062-1.8555-6.9375 2.2305-14.016 9.168-15.875 0.98437-0.26562 1.5742-1.2812 1.3086-2.2695-0.20703-0.77344-0.89062-1.3281-1.6914-1.3711zm-36.082 14.309c-0.48828 0-0.96094 0.19531-1.3086 0.54297s-0.54297 0.82031-0.54297 1.3086c0 0.49219 0.19531 0.96484 0.54297 1.3125 0.34766 0.34375 0.82031 0.53906 1.3086 0.53906h8.3359c0.48828 0 0.96094-0.19531 1.3086-0.53906 0.34766-0.34766 0.54297-0.82031 0.54297-1.3125 0-0.48828-0.19531-0.96094-0.54297-1.3086s-0.82031-0.54297-1.3086-0.54297zm71.297 0c-0.48828 0-0.96094 0.19531-1.3086 0.54297s-0.54297 0.82031-0.54297 1.3086c0 0.49219 0.19531 0.96484 0.54297 1.3125 0.34766 0.34375 0.82031 0.53906 1.3086 0.53906h8.3359c0.48828 0 0.96094-0.19531 1.3086-0.53906 0.34766-0.34766 0.54297-0.82031 0.54297-1.3125 0-0.48828-0.19531-0.96094-0.54297-1.3086s-0.82031-0.54297-1.3086-0.54297zm-61.109 21.297c-1.0234 0-1.8516 0.82813-1.8516 1.8516 0 0.49219 0.19531 0.96094 0.54297 1.3086 0.34766 0.34766 0.81641 0.54297 1.3086 0.54297h59.258c0.49219 0 0.96484-0.19531 1.3086-0.54297 0.34766-0.34766 0.54297-0.81641 0.54297-1.3086 0-1.0234-0.82812-1.8516-1.8516-1.8516zm7.4062 9.2578c-1.0234 0-1.8516 0.83203-1.8516 1.8555 0 1.0195 0.82812 1.8516 1.8516 1.8516h44.445c0.49219 0 0.96094-0.19531 1.3086-0.54297 0.34766-0.34766 0.54297-0.82031 0.54297-1.3086 0-0.49219-0.19531-0.96484-0.54297-1.3125s-0.81641-0.54297-1.3086-0.54297z"/>
<text x="0.0" y="117.5" font-size="5.0" font-weight="bold" font-family="Arbeit Regular, Helvetica, Arial-Unicode, Arial, Sans-serif" fill="#000000">Created by Graphtend</text><text x="0.0" y="122.5" font-size="5.0" font-weight="bold" font-family="Arbeit Regular, Helvetica, Arial-Unicode, Arial, Sans-serif" fill="#000000">from Noun Project</text></svg>