<svg xmlns="http://www.w3.org/2000/svg" data-name="Layer 1" viewBox="0 0 100 125" x="0px" y="0px"><path d="M50,34a16.09,16.09,0,0,1,14.43,9.08,5.05,5.05,0,0,0,6.7,2.44l8.53-3.89a4,4,0,1,0-3.32-7.28l-6.09,2.78a24,24,0,0,0-7.4-7.37l2.79-6.11a4,4,0,1,0-7.28-3.32l-2.88,6.32A23.88,23.88,0,0,0,50,26a23.55,23.55,0,0,0-5.48.64l-2.88-6.31a4,4,0,0,0-7.28,3.32l2.78,6.1a24.2,24.2,0,0,0-7.39,7.38l-6.09-2.78a4,4,0,1,0-3.32,7.28l6.3,2.88A24.1,24.1,0,0,0,26,50c0,.47,0,.94.05,1.41s.05.69.09,1l0,.3a21.93,21.93,0,0,0,.47,2.67l-6.33,3A4,4,0,0,0,22,66a4.06,4.06,0,0,0,1.69-.37l6-2.82a24.1,24.1,0,0,0,7.4,7.44l-2.78,6.09a4,4,0,0,0,2,5.3A3.92,3.92,0,0,0,38,82a4,4,0,0,0,3.64-2.34l3.9-8.54a5.06,5.06,0,0,0-2.45-6.7,16.1,16.1,0,0,1-8.32-9.58c0-.06,0-.13,0-.19A15.49,15.49,0,0,1,34,50,16,16,0,0,1,50,34Z"/><circle cx="78" cy="76.98" r="4"/><circle cx="56" cy="59" r="4"/><path d="M56.54,81.14a4,4,0,0,0,5.62-.7l16-20a4,4,0,0,0-6.32-4.91l-16,20A4,4,0,0,0,56.54,81.14Z"/><text x="0" y="115" fill="#000000" font-size="5px" font-weight="bold" font-family="'Helvetica Neue', Helvetica, Arial-Unicode, Arial, Sans-serif">Created by Gregor Cresnar</text><text x="0" y="120" fill="#000000" font-size="5px" font-weight="bold" font-family="'Helvetica Neue', Helvetica, Arial-Unicode, Arial, Sans-serif">from the Noun Project</text></svg>