<svg xmlns="http://www.w3.org/2000/svg" xmlns:xlink="http://www.w3.org/1999/xlink" version="1.1" x="0px" y="0px" viewBox="0 0 1024 1280" style="enable-background:new 0 0 1024 1024;" xml:space="preserve"><g><path d="M909.4,457.8c-47.37-75.5-104.26-134.74-169.1-176.05C670.79,237.46,593.98,215,512,215   c-81.59,0-158.08,22.25-227.33,66.13c-64.62,40.95-121.39,99.68-168.74,174.56c-21.63,34.2-21.63,78.41,0,112.61   c47.35,74.88,104.12,133.62,168.74,174.56C353.92,786.75,430.41,809,512,809c43.04,0,85.83-6.27,127.18-18.62   c40.08-11.97,78.94-29.7,115.51-52.69l-26.61-42.33C660.9,737.59,588.2,759,512,759c-178.81,0-291.1-118.23-353.81-217.42   c-11.36-17.97-11.36-41.2,0-59.17C220.9,383.23,333.19,265,512,265c179.71,0,292.27,119.3,355.04,219.37   c10.53,16.79,11.08,38.05,1.43,55.5c-27.44,49.64-51.81,86.62-88.5,117.52l32.21,38.24c42.43-35.75,70.68-78.45,100.05-131.57   C930.68,530.7,929.59,489.99,909.4,457.8z"/><circle cx="512" cy="512" r="172.5"/></g><text x="0" y="1039" fill="#000000" font-size="5px" font-weight="bold" font-family="'Helvetica Neue', Helvetica, Arial-Unicode, Arial, Sans-serif">Created by Icon Pie</text><text x="0" y="1044" fill="#000000" font-size="5px" font-weight="bold" font-family="'Helvetica Neue', Helvetica, Arial-Unicode, Arial, Sans-serif">from the Noun Project</text></svg>